<?xml version="1.0" encoding="utf-8"?>
<!-- Generator: Adobe Illustrator 27.1.1, SVG Export Plug-In . SVG Version: 6.00 Build 0)  -->
<svg version="1.1" id="Camada_2_00000096744231370226821250000007682986975323446156_"
	 xmlns="http://www.w3.org/2000/svg" xmlns:xlink="http://www.w3.org/1999/xlink" x="0px" y="0px" viewBox="0 0 344.2 390"
	 style="enable-background:new 0 0 344.2 390;" xml:space="preserve">
<style type="text/css">
	.st0{fill:none;stroke:#831D45;stroke-width:15;stroke-miterlimit:10;}
</style>
<g id="Camada_1-2">
	<g id="atividades">
		<path class="st0" d="M110.5,362.3c-2.4-1.2-4.3-3.4-5-6.1L29.6,73c-1.4-5.1,1.7-10.4,6.8-11.8L235.7,7.8
			c5.1-1.4,10.4,1.7,11.8,6.8l15.1,54.3"/>
		<path class="st0" d="M115.7,68.9H327c5.4,0,9.7,4.4,9.7,9.7v294.2c0,5.4-4.4,9.7-9.7,9.7H115.7c-5.4,0-9.7-4.4-9.7-9.7V78.6
			C106,73.2,110.4,68.9,115.7,68.9z"/>
		<line class="st0" x1="18.8" y1="171.6" x2="71.8" y2="370.2"/>
		<line class="st0" x1="7.2" y1="212.5" x2="42.7" y2="346.9"/>
		<polyline class="st0" points="143.6,130.1 161.6,149.3 192.8,114.5 		"/>
		<polyline class="st0" points="143.6,181.7 161.6,200.9 192.8,166.1 		"/>
		<polyline class="st0" points="143.6,238.1 161.6,257.3 192.8,222.5 		"/>
		<polyline class="st0" points="143.6,294.5 161.6,313.7 192.8,278.9 		"/>
		<line class="st0" x1="216.9" y1="125.2" x2="294.7" y2="125.2"/>
		<line class="st0" x1="216.9" y1="146.9" x2="294.7" y2="146.9"/>
		<line class="st0" x1="216.9" y1="180.3" x2="294.7" y2="180.3"/>
		<line class="st0" x1="216.9" y1="202" x2="294.7" y2="202"/>
		<line class="st0" x1="216.9" y1="236.3" x2="294.7" y2="236.3"/>
		<line class="st0" x1="216.9" y1="257.1" x2="294.7" y2="257.1"/>
		<line class="st0" x1="216.9" y1="292.4" x2="294.7" y2="292.4"/>
		<line class="st0" x1="216.9" y1="313.2" x2="294.7" y2="313.2"/>
	</g>
</g>
</svg>
