<?xml version="1.0" encoding="UTF-8"?>
<svg id="Camada_2" data-name="Camada 2" xmlns="http://www.w3.org/2000/svg" viewBox="0 0 441.4 387.05">
  <defs>
    <style>
      .cls-1 {
        stroke-linecap: round;
      }

      .cls-1, .cls-2 {
        fill: none;
        stroke: #801d45;
        stroke-miterlimit: 10;
        stroke-width: 15px;
      }

      .cls-3 {
        fill: #801d45;
      }
    </style>
  </defs>
  <g id="Camada_1-2" data-name="Camada 1">
    <g id="Online">
      <path class="cls-2" d="m12.25,340.14h399.33c2.62,0,4.75,2.13,4.75,4.75h0c0,19.13-15.53,34.67-34.67,34.67H42.17c-19.13,0-34.67-15.53-34.67-34.67h0c0-2.62,2.13-4.75,4.75-4.75Z"/>
      <rect class="cls-2" x="66.15" y="134.63" width="169.48" height="117.48" rx="5.28" ry="5.28"/>
      <path class="cls-2" d="m399.26,142.29v186.18c0,6.45-5.23,11.67-11.67,11.67H36.24c-6.45,0-11.67-5.23-11.67-11.67V92.08c0-6.45,5.23-11.67,11.67-11.67h247.35"/>
      <line class="cls-1" x1="269.96" y1="234.26" x2="363.14" y2="234.26"/>
      <line class="cls-1" x1="269.96" y1="260.82" x2="363.14" y2="260.82"/>
      <line class="cls-1" x1="269.96" y1="287.38" x2="363.14" y2="287.38"/>
      <line class="cls-1" x1="58.58" y1="287.16" x2="198.13" y2="287.16"/>
      <path class="cls-2" d="m279.38,61.5V12.94c0-3.01,2.44-5.44,5.44-5.44h143.63c3.01,0,5.44,2.44,5.44,5.44v126.03c0,3.01-2.44,5.44-6.61,5.44l-71.25.76-46.39,28.46-.55-29.22h-24.27c-3.01,0-5.44-2.44-5.44-5.44V61.5"/>
      <path class="cls-3" d="m387.58,73.97l-47.33,24.54c-.27.27-.74.08-.74-.31v-49.07c0-.39.47-.58.74-.31l47.33,24.54c.17.17.17.45,0,.62Z"/>
    </g>
  </g>
</svg>