<?xml version="1.0" encoding="UTF-8"?>
<svg id="Camada_2" data-name="Camada 2" xmlns="http://www.w3.org/2000/svg" viewBox="0 0 380.9 379.26">
  <defs>
    <style>
      .cls-1, .cls-2, .cls-3 {
        fill: none;
        stroke: #831d45;
        stroke-width: 15px;
      }

      .cls-1, .cls-3 {
        stroke-miterlimit: 10;
      }

      .cls-4 {
        fill: #831d45;
      }

      .cls-2 {
        stroke-linejoin: round;
      }

      .cls-3 {
        stroke-linecap: round;
      }
    </style>
  </defs>
  <g id="Camada_1-2" data-name="Camada 1">
    <g id="certificado">
      <path class="cls-3" d="m206.59,308.83H27.37c-10.97,0-19.87-8.9-19.87-19.87V27.37c0-10.97,8.9-19.87,19.87-19.87h326.15c10.97,0,19.87,8.9,19.87,19.87v261.58c0,10.97-8.9,19.87-19.87,19.87h-8.24"/>
      <path class="cls-4" d="m188.83,39.64c32.96,0,65.92,0,98.88,0,8.52,0,9.93,1.17,11.04,9.7,1.9,14.52,9.63,24.13,23.74,28.32,2.56.76,5.31.92,7.98,1.26,4.67.59,7.26,3.03,7.28,7.67.1,22.39.05,44.78.09,67.16,0,2.15-.73,2.99-2.99,3.1-11.64.56-11.63.62-11.64-11.05,0-16.11-.07-32.23.06-48.34.02-3.13-.97-4.41-4.09-5.25-17.7-4.81-29.09-16.23-33.91-33.92-.85-3.12-2.13-4.09-5.25-4.09-60.88.08-121.76.07-182.64,0-2.93,0-4.22.84-5.03,3.87-4.81,17.85-16.26,29.35-34.11,34.18-2.95.8-3.96,1.96-3.96,4.97.08,39.98.09,79.96-.02,119.93,0,3.28,1.27,4.33,4.24,5.14,17.38,4.78,28.75,15.87,33.58,33.3.92,3.31,2.21,4.39,5.72,4.37,28.66-.16,57.31-.03,85.97-.17,3.56-.02,5.29.6,4.78,4.59-.42,3.26.96,7.97-.74,9.51-1.96,1.78-6.44.98-9.82.98-29.39.05-58.79.03-88.18.03-8.17,0-9.9-1.5-10.98-9.45-2.43-17.79-12.99-28.02-30.68-29.73-5.89-.57-8.39-3.11-8.39-9-.04-46.37-.04-92.75,0-139.12,0-5.81,2.31-8.12,8.17-8.73,15.55-1.62,25.88-9.83,29.82-23.84.59-2.11.86-4.33,1.13-6.52.86-7.03,2.82-8.85,9.97-8.86,27.8-.02,55.59-.01,83.39-.01,5.53,0,11.07,0,16.6,0Z"/>
      <path class="cls-4" d="m188.58,125.12c-25.32,0-50.64,0-75.96,0-7.58,0-9.93-2.35-9.94-9.83,0-9.1-.02-18.19,0-27.29.02-6.2,2.81-8.99,9.03-8.99,51.38-.01,102.76-.01,154.14,0,6.2,0,8.99,2.81,9.01,9.02.03,7.74-.18,15.5.05,23.23.39,12.73-1.92,14.08-14.07,13.94-24.09-.26-48.18-.08-72.27-.08Zm.19-31.12c-20.05,0-40.1-.03-60.15.03-3.51,0-8.14-.88-10.19.96-1.77,1.59-.7,6.45-.74,9.86-.06,5.64-.01,5.65,5.58,5.65,43.66,0,87.33,0,130.99,0,.86,0,1.72-.05,2.58-.01,2.14.08,3.13-.8,3.04-3.06-.12-3.07-.25-6.17.03-9.22.33-3.5-1.08-4.29-4.37-4.27-22.26.13-44.52.07-66.79.07Z"/>
      <path class="cls-4" d="m141.55,195.98c-14.39,0-28.78-.05-43.17.05-2.76.02-3.87-.63-3.85-3.7.06-10.85-.07-10.85,10.67-10.85,26.2,0,52.39.06,78.59-.07,3.6-.02,5.32.74,4.75,4.66-.3,2.05-.25,4.2,0,6.26.35,3.08-1.05,3.73-3.82,3.71-14.39-.1-28.78-.05-43.17-.05Z"/>
      <path class="cls-4" d="m109.56,157.16q0,7.65-7.76,7.65-7.19,0-7.19-7.12,0-7.84,7.94-7.84,7.02,0,7.02,7.31Z"/>
      <path class="cls-4" d="m126.3,157.19q0-7.33,7.36-7.33,7.6,0,7.6,7.45t-7.54,7.51-7.42-7.63Z"/>
      <path class="cls-4" d="m47.2,274.92c-8.41-.15-7.41,1.25-7.47-7.34-.05-7.74-.01-7.79,7.78-7.72,7.57.07,6.86-1.22,6.93,6.75,0,.37,0,.73,0,1.1-.09,8.38.87,7.08-7.24,7.21Z"/>
      <path class="cls-4" d="m47.01,54.37c-8.17-.09-7.29.89-7.28-7.25,0-8.44-.98-7.45,7.41-7.46,8.17,0,7.29-.91,7.28,7.23,0,8.44.98,7.38-7.41,7.48Z"/>
      <path class="cls-4" d="m330.59,39.64c8.14.08,7.24-.88,7.23,7.29,0,8.4.98,7.41-7.45,7.42-8.13,0-7.24.9-7.24-7.27,0-8.4-.98-7.34,7.45-7.44Z"/>
      <path class="cls-2" d="m235.57,285.11c.27,29.28.11,58.17-.45,86.65,13.83-11.02,27.65-22.05,41.48-33.07l39.15,32.98c-.12-28.56-.24-57.11-.36-85.67"/>
      <circle class="cls-1" cx="274.88" cy="235.56" r="64.92"/>
      <path class="cls-4" d="m314.09,236.13c-.05,21.62-17.29,38.75-38.96,38.71-20.13-.04-38.63-16.21-38.65-38.84-.03-22.76,18.76-39.12,39.33-38.92,21.16.21,38.34,17.6,38.28,39.05Zm-38.79,23.7c13.22.01,23.93-10.58,24.03-23.78.1-13.06-10.71-23.9-23.88-23.93-13.15-.03-24,10.69-24.07,23.78-.07,13.04,10.8,23.92,23.92,23.93Z"/>
    </g>
  </g>
</svg>