<?xml version="1.0" encoding="UTF-8"?>
<svg id="Camada_2" data-name="Camada 2" xmlns="http://www.w3.org/2000/svg" viewBox="0 0 414.95 336.01">
  <defs>
    <style>
      .cls-1 {
        fill: none;
        stroke: #831d45;
        stroke-miterlimit: 10;
        stroke-width: 3px;
      }
    </style>
  </defs>
  <g id="contorno_logo" data-name="contorno logo">
    <g>
      <path class="cls-1" d="m181.21,312.42c-.7.46-1.08.69-1.08.69,0,0-7.27,4.89-11.61,6.97-4.33,2.09-12.12,5.27-12.12,5.27-30.89,11.11-61.11,9.61-90.66-4.72-1.88-.92-3.49-1.16-5.54-.52-15.17,4.7-58.24,13.95-58.24,13.95,0,0,9.95-45.85,13.98-59.4.32-1.1.17-2.62-.34-3.66C1.38,242.11-.63,212.39,9.73,181.94c13.12-38.57,47.46-66.47,86.35-73.75-8.61,22.92-14.8,53.71-7.15,87.87,16.12,71.98,67.84,102.83,67.84,102.83,0,0,10.45,7.04,16.69,10.03,2.2,1.05,5.02,2.31,7.75,3.5Z"/>
      <path class="cls-1" d="m412.99,329.02s-61.94-13.3-83.76-20.07c-2.94-.91-5.27-.56-7.97.75-42.48,20.61-85.94,22.77-130.37,6.79,0,0-4.68-1.92-9.68-4.07-2.73-1.19-5.55-2.45-7.75-3.5-6.24-2.99-16.69-10.03-16.69-10.03,0,0-51.72-30.85-67.84-102.83-7.65-34.16-1.46-64.95,7.15-87.87,9.54-25.38,22.05-41.12,22.05-41.12,26.89-34.98,62.02-56.28,105.55-63.51,75.79-12.6,153.32,33.8,178.12,106.7,14.9,43.79,12.02,86.53-8.43,128.08-.73,1.49-.96,3.67-.49,5.25,5.8,19.49,20.11,85.43,20.11,85.43Z"/>
      <line class="cls-1" x1="184.47" y1="119.31" x2="310.06" y2="119.31"/>
      <line class="cls-1" x1="184.47" y1="164.37" x2="310.06" y2="164.37"/>
      <line class="cls-1" x1="184.47" y1="209.44" x2="277.1" y2="209.44"/>
    </g>
  </g>
</svg>