<?xml version="1.0" encoding="UTF-8"?>
<svg id="Camada_2" data-name="Camada 2" xmlns="http://www.w3.org/2000/svg" viewBox="0 0 389.02 389.01">
  <defs>
    <style>
      .cls-1 {
        stroke-linejoin: round;
      }

      .cls-1, .cls-2 {
        fill: none;
        stroke: #831d45;
        stroke-width: 15px;
      }

      .cls-2 {
        stroke-linecap: round;
        stroke-miterlimit: 10;
      }
    </style>
  </defs>
  <g id="Camada_1-2" data-name="Camada 1">
    <g>
      <path class="cls-1" d="m381.52,381.51s-70.73-15.19-95.65-22.92c-3.36-1.04-6.02-.64-9.1.86-48.51,23.54-98.14,26-148.87,7.75,0,0-5.34-2.19-11.05-4.65-3.12-1.36-6.34-2.8-8.85-4-7.13-3.41-19.06-11.45-19.06-11.45,0,0-59.06-35.23-77.47-117.43-8.74-39.01-1.67-74.17,8.16-100.34,10.89-28.98,25.18-46.96,25.18-46.96C75.51,42.43,115.63,18.11,165.34,9.85c86.55-14.39,175.08,38.6,203.4,121.85,17.01,50.01,13.73,98.81-9.63,146.26-.83,1.7-1.1,4.19-.56,6,6.62,22.26,22.96,97.56,22.96,97.56Z"/>
      <line class="cls-2" x1="120.56" y1="142.03" x2="263.98" y2="142.03"/>
      <line class="cls-2" x1="120.56" y1="193.49" x2="263.98" y2="193.49"/>
      <line class="cls-2" x1="120.56" y1="244.95" x2="226.34" y2="244.95"/>
    </g>
  </g>
</svg>