<?xml version="1.0" encoding="UTF-8"?>
<svg id="Camada_2" data-name="Camada 2" xmlns="http://www.w3.org/2000/svg" viewBox="0 0 389.49 387.07">
  <defs>
    <style>
      .cls-1, .cls-2, .cls-3, .cls-4, .cls-5, .cls-6 {
        stroke: #831d45;
      }

      .cls-1, .cls-2, .cls-6 {
        fill: none;
      }

      .cls-1, .cls-7, .cls-3, .cls-4, .cls-6 {
        stroke-width: 15px;
      }

      .cls-1, .cls-3, .cls-4, .cls-5, .cls-6 {
        stroke-linejoin: round;
      }

      .cls-2, .cls-7 {
        stroke-miterlimit: 10;
      }

      .cls-2, .cls-5 {
        stroke-width: 10px;
      }

      .cls-7 {
        stroke: #edf2f4;
      }

      .cls-7, .cls-5 {
        fill: #edf2f4;
      }

      .cls-3, .cls-4 {
        fill: #fff;
      }

      .cls-3, .cls-6 {
        stroke-linecap: round;
      }
    </style>
  </defs>
  <g id="FORMADOS">
    <line class="cls-3" x1="335.42" y1="124.38" x2="336.06" y2="81.69"/>
    <line class="cls-3" x1="334.83" y1="173.34" x2="334.66" y2="160.49"/>
    <path class="cls-4" d="m375.69,77.95l-91.49,35.8-.14-17.72s-17.34-24.94-90.4-25.56c-73.05-.62-90.39,26.81-90.39,26.81l-.25,16.86L12.26,79.2,194.28,7.5l181.41,70.45Z"/>
    <path class="cls-1" d="m15.91,254.69s1.1-33.26,10.46-41.02c0,0,131.56,2.22,172.85,2.22s162.39-2.22,162.39-2.22c0,0,11.01,10.53,9.36,39.36"/>
    <path class="cls-1" d="m25.27,336.73S1.75,296.15,8.83,252.14c78.65-.22,373.15-.22,373.15-.22,0,0,1.1,59.31-19.82,84.26-10.04.25-81.01-7.84-155.24-7.76-88.51.09-181.66,8.31-181.66,8.31Z"/>
    <g>
      <polygon class="cls-5" points="248.97 365.65 221.93 316.95 196 314.3 184.78 313.52 219.98 382.07 229.26 363.77 248.97 365.65"/>
      <polygon class="cls-5" points="171.29 381.42 192.23 329.76 178.11 307.7 171.72 298.39 140.46 368.85 160.46 364.74 171.29 381.42"/>
      <g>
        <path class="cls-7" d="m214.45,324.07c1.7.25,3.47-1.02,4.53-3.55,1.71-4.09,4.39-7,9.09-7.39,4.05-.34,5.79-3.23,6.21-6.68.56-4.58,2.79-7.66,6.32-10.41,1.57-1.22,4.19-2.8,2.95-5.83-1.88-4.63-1.78-9.08,1.29-13.19,2.25-3.01,1.89-5.63-.5-8.49-2.76-3.3-4.39-7.25-3.04-11.6,1.13-3.64.14-5.68-3.26-7.21-4-1.8-6.52-4.91-6.97-9.54-.3-3.12-1.77-4.93-5.34-5.04-4.95-.15-9.04-2.74-11.57-6.84-2.12-3.43-4.47-3.56-7.58-2.26-3.99,1.67-8.03,1-10.98-1.57-3.5-3.06-5.81-1.32-8.63.52-3.23,2.11-6.39,4.29-10.71,2.66-4.6-1.73-5.02-1.33-7.54,3.32-2.15,3.95-5.27,6.88-9.88,7.22-3.41.25-4.93,1.63-5.22,5.07-.38,4.51-1.63,8.85-6.07,11.03-3.49,1.72-4.48,3.94-3.13,7.64,1.55,4.25,1.25,8.55-1.77,12.07-2.51,2.92-2.22,5.49.19,7.98,3.35,3.45,4.1,7.83,2.97,11.95-1.06,3.87.37,5.32,3.26,6.71,3.81,1.83,7.1,4.47,7.47,8.89.37,4.41,2.53,6.25,6.52,6.74,4.67.58,8.18,3.34,10.65,7,1.61,2.38,3.55,2.57,5.48,2.04,5.47-1.52,10.36-.44,15.02,2.48,1.8,1.13,3.25.89,4.61-.8,1.46-1.81,3.52-2.5,5.69-3.32,3.15-1.18,5.91.09,9.92.4Z"/>
        <path class="cls-2" d="m214.45,324.07c1.7.25,3.47-1.02,4.53-3.55,1.71-4.09,4.39-7,9.09-7.39,4.05-.34,5.79-3.23,6.21-6.68.56-4.58,2.79-7.66,6.32-10.41,1.57-1.22,4.19-2.8,2.95-5.83-1.88-4.63-1.78-9.08,1.29-13.19,2.25-3.01,1.89-5.63-.5-8.49-2.76-3.3-4.39-7.25-3.04-11.6,1.13-3.64.14-5.68-3.26-7.21-4-1.8-6.52-4.91-6.97-9.54-.3-3.12-1.77-4.93-5.34-5.04-4.95-.15-9.04-2.74-11.57-6.84-2.12-3.43-4.47-3.56-7.58-2.26-3.99,1.67-8.03,1-10.98-1.57-3.5-3.06-5.81-1.32-8.63.52-3.23,2.11-6.39,4.29-10.71,2.66-4.6-1.73-5.02-1.33-7.54,3.32-2.15,3.95-5.27,6.88-9.88,7.22-3.41.25-4.93,1.63-5.22,5.07-.38,4.51-1.63,8.85-6.07,11.03-3.49,1.72-4.48,3.94-3.13,7.64,1.55,4.25,1.25,8.55-1.77,12.07-2.51,2.92-2.22,5.49.19,7.98,3.35,3.45,4.1,7.83,2.97,11.95-1.06,3.87.37,5.32,3.26,6.71,3.81,1.83,7.1,4.47,7.47,8.89.37,4.41,2.53,6.25,6.52,6.74,4.67.58,8.18,3.34,10.65,7,1.61,2.38,3.55,2.57,5.48,2.04,5.47-1.52,10.36-.44,15.02,2.48,1.8,1.13,3.25.89,4.61-.8,1.46-1.81,3.52-2.5,5.69-3.32,3.15-1.18,5.91.09,9.92.4Z"/>
      </g>
      <ellipse class="cls-2" cx="193.63" cy="275.64" rx="20.1" ry="20.24"/>
    </g>
    <path class="cls-1" d="m284.68,177.08c-23.43-6.06-56.42-11.92-95.97-10.6-35.4,1.19-64.96,7.76-86.68,14.34l.99-66.68.25-16.86s17.34-27.43,90.39-26.81c73.06.62,90.4,25.56,90.4,25.56l.14,17.72.48,63.33Z"/>
    <ellipse class="cls-6" cx="334.83" cy="143.41" rx="16.72" ry="16.83"/>
  </g>
</svg>