<?xml version="1.0" encoding="UTF-8"?>
<svg id="Camada_2" data-name="Camada 2" xmlns="http://www.w3.org/2000/svg" viewBox="0 0 355.39 387.26">
  <defs>
    <style>
      .cls-1 {
        fill: none;
        stroke: #801d45;
        stroke-linecap: round;
        stroke-linejoin: round;
        stroke-width: 15px;
      }
    </style>
  </defs>
  <g id="FORMADOS">
    <g>
      <path class="cls-1" d="m220.71,331.48c-6.95-2.78-13.96-5.47-20.68-8.75-14.68-7.19-29.18-7.31-43.93-.24-6.75,3.23-13.69,6.13-20.7,8.73-7.74,2.87-12.89,1.33-17.78-5.42-3.56-4.91-7.02-10.05-9.55-15.54-8.42-18.27-22.76-27.98-42.33-30.75-3.92-.55-7.84-1.32-11.65-2.38-14.71-4.09-16.41-6.46-16.12-23.01.49-7.01,1.05-15.42,1.66-23.83.88-11.95-3.18-21.99-11.27-30.71-5.74-6.18-11.41-12.48-16.58-19.14-5.67-7.3-5.65-13.16-.21-20.57,3.6-4.9,7.38-9.85,11.91-13.84,14.77-12.98,18.04-29.38,15.7-47.89-.82-6.49-.95-13.06-1.28-19.61-.38-7.48,3.64-12.02,10.42-13.94,7.87-2.22,15.84-4.2,23.87-5.67,14.59-2.68,25.36-10.29,32.42-23.34,3.23-5.98,6.54-11.93,10.23-17.63,7.24-11.16,12.38-12.74,24.92-7.77,6.09,2.41,12,5.27,17.96,8.02,13.36,6.15,26.66,6.14,40.07.06,7.24-3.29,14.49-6.64,21.97-9.3,8.54-3.04,13.77-1.29,18.96,6.08,3.63,5.16,7.14,10.53,9.79,16.23,8.07,17.34,21.81,26.24,40.35,28.93,6.21.9,12.36,2.56,18.38,4.4,7.09,2.17,10.84,7.29,10.54,14.79-.38,9.59-.85,19.19-1.74,28.75-1.15,12.47,2.51,23,11.11,32.1,5.63,5.96,11.04,12.17,16.09,18.63,6.41,8.2,6.12,14.73-.53,22.83-4.02,4.89-7.85,10.06-12.52,14.28-13.74,12.41-15.49,28.02-13.45,45.07.83,6.96.9,14.03,1.02,21.05.12,6.71-3.42,11.19-9.74,12.99-7.64,2.17-15.35,4.22-23.16,5.63-15.57,2.82-27.14,10.77-34.67,24.8-3.76,7.01-7.88,13.86-12.34,20.44-4.11,6.06-10.01,8.4-17.17,5.53Z"/>
      <path class="cls-1" d="m309.88,279.48c-.16.03,31.47,57.67,33.24,61.08-27.55-5.23-23.77-5.96-44.46-11.34-9.08-2.36-11.07-1.16-13.56,7.83-3.91,14.18-7.72,28.4-11.58,42.6-.69.21-29.51-42.42-35.38-52.53"/>
      <path class="cls-1" d="m41.37,279.58c.16.03-31.47,57.67-33.24,61.08,3.54-.67,32.23-8.16,44.46-11.34,9.08-2.36,11.07-1.16,13.56,7.83,3.91,14.18,7.72,28.4,11.58,42.6.69.21,29.51-42.42,35.38-52.53"/>
      <path class="cls-1" d="m78.77,170.1c.03,54.35,44.57,99.47,98.92,98.97,59.14-.54,99.42-48.15,99.28-99.43-.15-54.15-44.61-99.37-99.05-99.01-60.06.4-99.99,49.76-99.15,99.47Z"/>
      <polyline class="cls-1" points="150.32 131.55 209.66 131.55 160.67 220.56"/>
    </g>
  </g>
</svg>