<?xml version="1.0" encoding="UTF-8"?>
<svg id="Camada_2" data-name="Camada 2" xmlns="http://www.w3.org/2000/svg" xmlns:xlink="http://www.w3.org/1999/xlink" viewBox="0 0 452.28 452.28">
  <defs>
    <style>
      .cls-1 {
        fill: none;
      }

      .cls-2 {
        clip-path: url(#clippath);
      }

      .cls-3 {
        fill: #fff;
      }

      .cls-4 {
        fill: #831d45;
      }
    </style>
    <clipPath id="clippath">
      <circle class="cls-1" cx="226.14" cy="226.14" r="226.14"/>
    </clipPath>
  </defs>
  <g id="Camada_1-2" data-name="Camada 1">
    <g>
      <circle class="cls-4" cx="226.14" cy="226.14" r="226.14"/>
      <g class="cls-2">
        <g>
          <path class="cls-3" d="m263.64,75.08l-107.01,284.95h-54.12L-4.91,75.08h50.02l84.46,236.98,84.87-236.98h49.2Z"/>
          <path class="cls-3" d="m269.35,113.16h4.06s27.81,0,27.81,0c15.3,0,27.27,3.63,35.88,10.86,8.61,7.25,12.92,17.29,12.92,30.14s-4.3,23.17-12.92,30.13c-8.61,6.97-20.57,10.46-35.88,10.46h-57.81,0s-4.7,0-4.7,0l-14.32,38.13h19.02s61.5,0,61.5,0c15.85,0,28.56,4.1,38.13,12.3,9.56,8.2,14.35,19.27,14.35,33.21s-4.51,24.33-13.53,31.98c-9.02,7.66-21.46,11.48-37.31,11.48h-93.14,0s-44.57,0-44.57,0l-14.32,38.13h156.13c18.86,0,35.39-3.34,49.61-10.04,14.21-6.69,25.07-15.85,32.59-27.47,7.51-11.62,11.28-24.66,11.28-39.16,0-16.95-5.33-32.12-15.99-45.51-10.66-13.39-23.65-21.45-38.95-24.19,14.76-5.19,26.51-13.25,35.26-24.19,8.74-10.93,13.12-24.6,13.12-41,0-13.66-3.56-26.04-10.66-37.1-7.11-11.07-17.63-19.88-31.57-26.44-13.94-6.56-30.62-9.84-50.02-9.84l-21.67.05"/>
        </g>
      </g>
    </g>
  </g>
</svg>