<?xml version="1.0" encoding="UTF-8"?>
<svg id="Camada_2" data-name="Camada 2" xmlns="http://www.w3.org/2000/svg" viewBox="0 0 376.13 388.87">
  <defs>
    <style>
      .cls-1 {
        fill: #831d45;
      }
    </style>
  </defs>
  <g id="Camada_1-2" data-name="Camada 1">
    <g id="mentoria">
      <g>
        <path class="cls-1" d="m121.25,387.62c-3.06,0-6.09-2.47-12.14-7.38l-.57-.46c-5.58-4.53-11.46-8.89-17.16-13.11-3.73-2.76-7.58-5.62-11.32-8.5-10.29-7.92-20.5-16.03-29.27-23.01-2.24-1.79-3.44-3.6-3.65-5.55-.21-1.95.55-3.97,2.34-6.17,8-9.85,15.92-20.04,23.59-29.89l5.08-6.52c10.55-13.54,22.8-29.27,34.71-44.77,2.78-3.62,5.46-7.38,8.05-11.01.9-1.26,1.79-2.52,2.69-3.76-.66-.31-1.32-.61-1.97-.9-2.42-1.09-4.92-2.21-7.11-3.77-5.21-3.7-8.64-9.86-9.15-16.49-.49-6.25,1.65-12.19,5.87-16.29,8.65-8.42,18.15-15.87,27.33-23.07,9.16-7.18,16.42-12.27,23.53-16.49,3.17-1.88,9.44-5.04,15.72-5.04h.59c8.08,0,11.94-4.89,16.4-10.55l.64-.81c1.51-1.9,3.09-3.8,4.62-5.64,3.72-4.45,7.56-9.06,10.51-14.02,2.96-4.98,4.38-11.17,5.59-17.07,1.56-7.66,2.98-15.49,4.34-23.07,1.77-9.79,3.6-19.91,5.76-29.79,3.03-13.81,13.1-22.39,26.29-22.39,2.29,0,4.67.26,7.08.78l2.25.48c4.04.86,8.21,1.75,12.3,2.76.8.2,1.5.29,2.13.29,1.75,0,3.1-.77,4.37-2.49,1.94-2.63,4.02-5.21,6.03-7.71,2.93-3.63,5.95-7.39,8.56-11.3,1.62-2.42,3.54-3.65,5.71-3.65,1.47,0,3.03.59,4.61,1.75,6.08,4.46,12.1,9.19,17.93,13.77,3,2.36,6,4.72,9.03,7.06,11.13,8.59,22.48,17.28,32.25,24.74.9.69,1.92,1.35,2.91,1.98,2.21,1.43,4.51,2.91,6.02,5.05,1.6,2.26,1.53,7.13-.12,9.47-7.08,10.03-14.4,20.39-22.86,29.82-1.5,1.67-2.19,2.99-2.1,4.03.1,1.26,1.44,2.43,3.18,3.83,4.88,3.93,6.95,9.4,6.13,16.25-1.17,9.88-6.67,16.08-16.34,18.44-.5,1.34-.97,2.68-1.42,3.98-1.25,3.6-2.43,7-4.22,10.15-1.6,2.82-4.81,5.41-7.98,6.44-3.95,1.28-5.42,2.97-6.05,6.97-1.54,9.8-6.54,14.83-17.17,17.17.26,8.74-2.94,15.41-9.29,19.33-3.64,2.25-7.4,3.38-11.19,3.38-4.69,0-9.39-1.73-13.98-5.15-.99,1.41-2.06,2.7-3.1,3.97-3.31,4.01-6.43,7.8-6.09,14.1.78,14.32,1.18,28.9,1.56,42.99.33,12.41.68,25.23,1.29,37.83.29,6.04-1.77,11.7-5.8,15.94-3.92,4.11-9.26,6.38-15.05,6.38-2.34,0-4.72-.37-7.09-1.1,0,.42-.01.84-.02,1.25-.03,2.05-.05,3.99.06,5.91.35,5.96-1.66,11.59-5.68,15.85-3.94,4.18-9.26,6.49-14.99,6.49-2.45,0-4.91-.43-7.33-1.28-3.16,11.8-10.58,18.53-20.54,18.53-5.56,0-11.4-2.28-16.19-6.3-4.17,3.33-8.64,5.01-13.31,5.01-4.11,0-8.34-1.24-12.9-3.8-1.1,1.39-2.2,2.79-3.32,4.19-2.96,3.74-6.02,7.6-8.99,11.47l-.06.08c-5.48,7.13-7.98,10.38-11.55,10.38Zm-59.18-59.78c2.28,1.71,4.52,3.38,6.74,5.03,5.72,4.26,11.12,8.29,16.51,12.47,4.54,3.52,9.12,7.13,13.55,10.63,6.31,4.98,12.84,10.13,19.35,15.08.16.12.77.32,1.69.32s1.52-.21,1.65-.3c4.74-5.62,9.33-11.6,13.77-17.39l1.99-2.59c.33-.43.56-1.13.54-1.62-.15-3.39-.35-6.78-.54-10.17-.23-3.98-.46-8.09-.62-12.15-.59-14.6-1.14-29.2-1.68-43.8l-.7-18.54-1.1-28.73-71.13,91.76Zm108.84-47.89c3.34,0,5.58,2.85,5.71,7.27.32,11.44.78,23.07,1.22,34.32.3,7.56.6,15.12.86,22.68.2,5.93,3.17,9.37,8.13,9.43h.17c5.05,0,7.48-2.76,7.65-8.7.09-3.28-.05-6.64-.18-9.9-.05-1.11-.09-2.23-.13-3.34-.2-5.99-.41-11.99-.62-17.98-.33-9.63-.67-19.25-.97-28.88-.1-3.09.49-5.25,1.81-6.61,1-1.03,2.36-1.55,4.05-1.55h.23c6.73.18,6.83,6.55,6.87,8.64.21,13.04.78,26.31,1.34,39.13l.19,4.47c.17,3.88,4.02,7.42,8.09,7.42.12,0,.24,0,.36,0,5.26-.29,8.08-4.47,7.73-11.47-.76-15.11-1.55-30.74-1.8-46.27-.04-2.64,2.83-6.48,5.49-7.35.58-.19,1.16-.29,1.73-.29,3,0,5.21,2.61,5.38,6.35l.08,1.66c.3,6.43.6,13.08.81,19.62.21,6.59,2.78,9.42,8.59,9.47h0c4.58,0,7.32-3.44,7.43-9.2l.04-1.91c.07-3.39.14-6.9.02-10.32-.61-17.69-1.27-35.37-1.93-53.05l-.61-16.36c-.21-5.39-.42-10.97,3.62-15.83,2.04-2.45,3.98-5,5.7-7.25.48-.63.95-1.24,1.39-1.82-.85-.97-1.68-1.89-2.48-2.78-2.09-2.33-4.07-4.52-5.83-6.85-2.68-3.56-3.65-8.99-2.6-14.52,1.02-5.36,3.8-9.88,7.44-12.11,4.42-2.71,5.54-5.01,4.24-8.81-.62-1.83-.44-3.91-.17-5.33,1.92-10.31,7.79-16.32,17.47-17.88.07-7.87,2.34-18.15,17.65-22.49,1.03-13.24,6.53-19.87,18.28-22.1,1.14-.22,2.29-.33,3.4-.33,6.99,0,12.03,4.06,17.44,8.97,1.54,1.4,2.56,2.03,3.29,2.03.46,0,1.24-.24,2.77-2.3,5.35-7.2,11.03-14.32,16.52-21.21l2.27-2.85c.57-.72.83-1.35.77-1.89-.08-.66-.63-1.37-1.74-2.24-16.5-12.95-31.38-24.61-46.34-36.19-2.2-1.71-4.54-3.23-7.02-4.84-.86-.56-1.72-1.12-2.59-1.7l-12.51,16.42c.04.08.07.15.1.22.16.34.28.59.38.71,6.84,7.76,7.67,17.86,2.29,27.71-3.65,6.69-12.08,11.54-20.05,11.54-1.7,0-3.32-.22-4.84-.67-1.95-.57-3.46-.84-4.75-.84-2.9,0-5.08,1.4-7.52,4.85-7.11,10.04-14.87,19.85-22.38,29.34-3.26,4.12-6.63,8.37-9.89,12.59-2.55,3.29-5.08,6.6-7.6,9.92-5.69,7.47-11.58,15.19-17.68,22.53-1.88,2.27-5.21,4-10.17,5.31-2.44.64-4.94,1.07-7.37,1.48-5.91,1.01-11.5,1.96-16.32,5.79-5.42,4.31-11,8.59-16.39,12.73-5.41,4.15-11,8.45-16.43,12.76l-.1.08c-4.02,3.2-8.18,6.5-11.14,10.49-1.9,2.57-2.13,6.17-.6,9.39,1.49,3.14,4.29,5.18,7.32,5.33.19,0,.38.01.58.01,2.67,0,5.58-.86,7.92-1.55,1.35-.4,2.59-.6,3.7-.6,2.44,0,6.58,1.06,6.8,8.16.23,7.29.53,14.71.81,21.89.25,6.4.51,12.79.73,19.19.27,7.89.5,15.79.73,23.69.23,7.95.47,15.9.74,23.84.36,10.67.82,23.26,1.46,35.73.21,4.08,3.88,7.4,8.18,7.4h.23c2.02-.06,3.79-.84,5.12-2.26,1.77-1.89,2.67-4.8,2.54-8.19-.21-5.56-.45-11.11-.69-16.67-.53-12.19-1.07-24.8-1.32-37.21-.05-2.74,2.77-7.29,5.47-7.9.49-.11.98-.17,1.45-.17Zm97.27-98.37c3.11,2.49,6.98,5.6,10.85,8.59,1.55,1.2,3.51,1.87,5.5,1.87s3.85-.72,4.89-1.98c1.69-2.05,2.53-4.88,2.26-7.57-.22-2.13-1.12-3.92-2.53-5.06-5.41-4.35-10.53-8.2-15.63-11.78-1.59-1.12-3.37-1.71-5.15-1.71-2.25,0-4.34.94-5.87,2.63-2.61,2.89-1.64,7.76,2.48,12.44.96.77,2.04,1.63,3.22,2.57Zm11.53-27.29c4.38,3.63,8.91,7.39,13.51,11.12.83.67,1.82,1.21,2.85,1.77.52.28,1.04.57,1.54.87,1.55.93,3.3,1.42,5.05,1.42,2.25,0,4.19-.82,5.33-2.25,2.86-3.58,2.6-8.02-.63-10.79-4.92-4.21-10.15-8.27-15.2-12.19-2.55-1.98-5.1-3.96-7.63-5.97-1.46-1.16-2.97-1.75-4.47-1.75-1.83,0-3.67.84-5.48,2.51-3.16,2.91-2.87,7.47.74,11.63l4.38,3.63Zm18.21-39.92c-2.33,0-4.46.83-5.56,2.17-1.37,1.66-2.04,4.38-1.76,7.08.24,2.3,1.13,4.22,2.44,5.27l2.46,1.97c6.27,5.02,12.76,10.21,19.42,14.9,1.73,1.22,3.47,1.86,5.03,1.86h0c1.52,0,2.94-.61,4.21-1.82l.09-.08c2.17-1.7,3.42-4.13,3.43-6.67.01-2.53-1.16-4.87-3.3-6.58-6.58-5.26-13.62-10.68-21.5-16.57-1.31-.98-3.08-1.52-4.97-1.52Zm17.92-22.2c-.4,0-.78.04-1.12.1-3.28.64-5.72,2.66-6.52,5.41-.74,2.54.11,5.2,2.33,7.3,4.33,4.1,9.19,7.83,13.88,11.44,2.89,2.22,5.88,4.52,8.74,6.9,1.52,1.26,3.04,1.87,4.64,1.87h0c1.72,0,3.58-.74,5.53-2.19,1.07-.8,1.74-2.08,1.92-3.7.33-2.88-.91-6.3-3.31-9.18-1.51-1.13-3.11-2.33-4.78-3.59-5.61-4.21-11.97-8.99-18.45-13.64-.63-.45-1.73-.73-2.88-.73Zm-63.07-57.45c-7.58,0-11.75,3.6-13.52,11.66-1.47,6.7-2.68,12.67-3.72,18.24-1.08,5.79-2.1,11.69-3.08,17.4-.28,1.6-.55,3.21-.83,4.81,1.14-1.45,2.28-2.9,3.42-4.36,3.77-4.8,7.67-9.76,11.4-14.72.89-1.19,1.67-2.24,2.37-3.18,3.8-5.14,5.22-7.07,8.15-7.07,1.25,0,2.62.37,4.71.92,1.61.43,3.62.96,6.26,1.51,1.67.34,3.2.52,4.56.52,5.12,0,8.28-2.43,10.26-7.89.93-2.58.81-5.16-.37-7.45-1.46-2.85-4.4-5.02-8.26-6.11l-1.35-.38c-5.6-1.58-11.39-3.22-17.12-3.77-1.01-.1-1.97-.14-2.86-.14Z"/>
        <path class="cls-1" d="m301,2.5c1.32,0,2.63.6,3.87,1.51,9.15,6.7,17.95,13.88,26.93,20.81,10.72,8.28,21.49,16.52,32.25,24.75,2.93,2.24,6.64,3.89,8.66,6.76,1.29,1.83,1.21,6.15-.12,8.03-7.2,10.19-14.46,20.44-22.77,29.71-4.37,4.86-2.16,6.95,1.22,9.67,4.92,3.96,6.37,9.29,5.68,15.13-1.18,9.95-6.71,15.45-16.03,17.52-1.98,5.19-3.31,10.21-5.79,14.58-1.46,2.56-4.46,4.96-7.28,5.87-4.28,1.39-6.18,3.38-6.9,7.96-1.54,9.79-6.68,14.28-17.23,16.35.48,7.9-1.83,15.06-8.65,19.28-3.48,2.15-7.01,3.2-10.53,3.2-4.8,0-9.59-1.94-14.27-5.71-4.15,6.48-10.66,10.57-10.14,19.94,1.47,26.91,1.54,53.89,2.85,80.82.56,11.53-8.11,21.01-19.6,21.01-2.65,0-5.46-.5-8.33-1.61,0,3.18-.13,6.1.04,8.99.69,11.61-8.31,21.02-19.42,21.02-2.65,0-5.41-.53-8.2-1.7-3.1,13.4-11.18,18.96-19.67,18.96-5.65,0-11.48-2.45-16.17-6.69-4.27,3.67-8.7,5.4-13.33,5.4-4.22,0-8.62-1.44-13.21-4.17-4.26,5.41-8.68,10.92-12.98,16.53-5.22,6.79-7.65,9.97-10.62,9.97-2.7,0-5.85-2.63-11.93-7.57-9.25-7.51-19.06-14.35-28.5-21.63-9.82-7.57-19.55-15.27-29.25-23-3.59-2.86-4.46-5.84-1.12-9.95,9.74-12,19.18-24.24,28.68-36.44,11.61-14.9,23.2-29.81,34.71-44.78,4.06-5.29,7.85-10.79,11.64-16.01-3.5-1.74-7.18-3.03-10.24-5.2-9.95-7.06-11.85-22.37-3.14-30.86,8.49-8.27,17.89-15.66,27.23-22.98,7.49-5.87,15.23-11.55,23.4-16.4,4.46-2.65,10.03-4.87,15.08-4.87.09,0,.17,0,.26,0,.11,0,.22,0,.33,0,9.1,0,13.33-5.92,18.02-11.85,5.17-6.54,11-12.69,15.22-19.79,3.06-5.15,4.52-11.47,5.74-17.46,3.58-17.57,6.27-35.33,10.1-52.84,2.79-12.75,12.09-21.4,25.07-21.4,2.17,0,4.45.24,6.82.75,4.85,1.04,9.7,2.04,14.51,3.23.87.21,1.68.33,2.43.33,2.09,0,3.81-.88,5.38-3,4.76-6.44,10.19-12.41,14.63-19.05,1.49-2.23,3.09-3.1,4.68-3.1m-28.67,69.76c-1.54,0-3.05-.2-4.49-.62-1.91-.56-3.58-.89-5.1-.89-3.24,0-5.79,1.49-8.54,5.38-10.17,14.37-21.45,27.95-32.24,41.88-8.39,10.83-16.5,21.89-25.26,32.41-2.12,2.55-6.12,4-9.53,4.9-8.16,2.15-16.98,1.82-24.14,7.51-10.84,8.62-21.97,16.87-32.82,25.49-4.11,3.27-8.39,6.65-11.47,10.81-4.68,6.33.1,16.35,7.66,16.71.21.01.42.01.64.01,2.75,0,5.59-.81,8.27-1.6,1.24-.37,2.36-.55,3.34-.55,3.53,0,5.41,2.34,5.56,6.95.44,13.7,1.08,27.39,1.54,41.08.54,15.84.93,31.69,1.47,47.53.4,11.92.85,23.84,1.46,35.75.25,4.86,4.6,8.58,9.43,8.58.09,0,.18,0,.26,0,5.47-.15,9.14-4.87,8.87-11.75-.69-17.95-1.65-35.9-2.01-53.86-.05-2.3,2.52-6.21,4.49-6.66.41-.09.8-.14,1.17-.14,2.7,0,4.35,2.37,4.46,6.06.53,19.01,1.42,38.01,2.07,57.01.22,6.54,3.61,10.57,9.37,10.64.06,0,.12,0,.18,0,5.71,0,8.71-3.19,8.9-9.91.12-4.43-.16-8.88-.31-13.32-.52-15.62-1.09-31.24-1.59-46.86-.11-3.38.59-6.87,4.61-6.87.06,0,.13,0,.19,0,4.25.11,5.58,3.05,5.65,7.4.23,14.55.91,29.09,1.53,43.64.2,4.63,4.75,8.61,9.34,8.61.14,0,.28,0,.43-.01,6.09-.33,9.29-5.16,8.91-12.78-.78-15.4-1.55-30.81-1.79-46.23-.03-2.12,2.56-5.47,4.62-6.14.47-.15.92-.22,1.34-.22,2.35,0,4,2.19,4.13,5.16.33,7.09.66,14.18.89,21.27.23,7.22,3.31,10.62,9.83,10.68.03,0,.06,0,.1,0,5.21,0,8.47-3.92,8.59-10.43.07-4.1.2-8.2.05-12.3-.8-22.89-1.66-45.77-2.51-68.65-.2-5.52-.61-11.04,3.3-15.74,2.91-3.5,5.61-7.17,7.75-9.92-3.38-3.89-6.38-6.94-8.93-10.33-5.17-6.87-2.75-20.38,4.49-24.81,4.04-2.47,6.5-5.2,4.78-10.28-.48-1.42-.41-3.18-.13-4.7,1.82-9.78,7.47-15.79,17.5-17.03-.14-9.51,2.72-18.74,17.58-22.61.82-13.33,5.96-19.69,17.33-21.85,1.1-.21,2.15-.31,3.17-.31,6.8,0,11.86,4.35,16.6,8.65,1.69,1.54,2.96,2.35,4.13,2.35,1.23,0,2.36-.9,3.78-2.81,6.07-8.15,12.44-16.08,18.77-24.04,2.05-2.57.8-4.34-1.18-5.89-15.42-12.1-30.85-24.2-46.35-36.19-3.31-2.56-6.93-4.72-10.67-7.24-4.82,6.32-9.32,12.22-13.7,17.97.51.96.68,1.5,1.02,1.89,7.04,8,6.87,17.62,2.13,26.28-3.46,6.34-11.55,10.89-18.95,10.89m-41.46,17.57c5.53-7.1,11.16-14.12,16.57-21.32,5.64-7.49,6.79-9.75,9.52-9.75,1.98,0,4.78,1.18,10.72,2.4,1.76.36,3.36.54,4.81.54,5.81,0,9.32-2.89,11.43-8.72,2.41-6.67-1.66-12.98-9.47-15.18-6.15-1.73-12.38-3.59-18.7-4.19-1.02-.1-2.02-.15-2.98-.15-7.25,0-12.63,3.01-14.74,12.64-1.33,6.07-2.59,12.17-3.73,18.28-1.54,8.29-2.93,16.61-4.39,24.91.32.17.63.34.95.52m106.93,36.61c2.22,0,4.35-.99,6.28-2.43,3.62-2.7,3.34-9.36-1.27-14.79-6.6-4.93-14.9-11.25-23.37-17.33-.91-.65-2.31-.96-3.61-.96-.48,0-.94.04-1.36.12-7.58,1.48-10.49,9.46-4.8,14.84,7.05,6.67,15.19,12.17,22.68,18.39,1.84,1.53,3.67,2.16,5.44,2.16m-17.85,22.43c1.71,0,3.44-.62,5.07-2.17,5.1-3.99,5.28-11.11.14-15.21-7.08-5.66-14.27-11.17-21.53-16.6-1.61-1.21-3.69-1.77-5.72-1.77-2.6,0-5.13.93-6.52,2.62-3.09,3.75-2.76,11.23.87,14.13,7.22,5.76,14.39,11.6,21.94,16.91,1.73,1.21,3.72,2.09,5.75,2.09m-17.29,21.86c2.53,0,4.88-.93,6.31-2.72,3.12-3.9,3.18-9.11-.8-12.52-7.39-6.33-15.24-12.13-22.86-18.19-1.78-1.41-3.55-2.03-5.25-2.03-2.27,0-4.43,1.09-6.32,2.84-3.75,3.46-3.32,8.85.71,13.45,5.63,4.66,11.76,9.79,17.98,14.83,1.36,1.1,3.02,1.83,4.54,2.74,1.79,1.07,3.79,1.6,5.69,1.6m-18.14,22.56c2.34,0,4.53-.83,5.85-2.44,3.57-4.33,3.49-11.23-.46-14.4-5.11-4.1-10.34-8.07-15.7-11.83-1.87-1.31-3.9-1.93-5.86-1.93-2.56,0-5.01,1.06-6.8,3.04-2.86,3.16-2.4,8.62,2.54,14.18,3.57,2.84,8.82,7.1,14.16,11.24,1.85,1.43,4.12,2.13,6.26,2.13m-164.63,179.34c1.09,0,2.17-.24,2.57-.71,5.49-6.5,10.63-13.31,15.82-20.06.5-.65.84-1.63.8-2.44-.34-7.44-.86-14.87-1.16-22.31-.84-20.78-1.59-41.56-2.38-62.33-.38-10.05-.77-20.09-1.15-30.14-.43-.15-.87-.3-1.3-.44-24.13,31.12-48.25,62.25-72.79,93.9,8.46,6.36,16.44,12.2,24.24,18.25,11,8.53,21.83,17.29,32.91,25.72.51.39,1.48.58,2.44.58M301,0c-1.8,0-4.43.73-6.75,4.21-2.58,3.86-5.59,7.6-8.5,11.21-2.02,2.51-4.11,5.1-6.06,7.74-1.29,1.75-2.38,1.99-3.37,1.99-.53,0-1.13-.08-1.84-.26-4.11-1.01-8.31-1.91-12.36-2.77l-2.23-.48c-2.5-.53-4.97-.81-7.34-.81-13.81,0-24.35,8.95-27.51,23.37-2.17,9.91-4,20.05-5.78,29.85-1.37,7.56-2.78,15.38-4.34,23.03-1.18,5.8-2.58,11.87-5.44,16.69-2.9,4.88-6.71,9.45-10.4,13.86-1.54,1.84-3.12,3.74-4.64,5.66l-.64.81c-4.26,5.41-7.94,10.08-15.42,10.08h-.29s-.3,0-.3,0c-6.58,0-13.07,3.27-16.36,5.22-7.16,4.25-14.46,9.36-23.67,16.58-9.21,7.22-18.74,14.69-27.43,23.16-4.48,4.36-6.75,10.66-6.24,17.28.54,6.99,4.16,13.5,9.67,17.41,2.29,1.63,4.85,2.78,7.32,3.89.19.09.39.17.58.26-.6.83-1.19,1.67-1.79,2.51-2.59,3.63-5.27,7.39-8.04,11-11.9,15.49-24.15,31.23-34.7,44.77-1.68,2.16-3.36,4.32-5.04,6.48-7.67,9.87-15.6,20.07-23.61,29.92-2.01,2.47-2.86,4.79-2.61,7.09.25,2.3,1.6,4.39,4.11,6.39,8.78,6.99,19.01,15.1,29.28,23.02,3.75,2.89,7.61,5.75,11.34,8.51,5.68,4.21,11.56,8.56,17.12,13.08l.57.47c6.28,5.1,9.43,7.66,12.93,7.66,4.19,0,6.98-3.63,12.54-10.87l.06-.08c2.96-3.85,6-7.7,8.95-11.42.9-1.14,1.8-2.27,2.69-3.4,4.4,2.32,8.53,3.45,12.57,3.45,4.66,0,9.12-1.57,13.29-4.67,4.86,3.81,10.66,5.96,16.21,5.96,10.05,0,17.9-6.74,21.39-18.2,2.14.63,4.31.94,6.48.94,6.07,0,11.72-2.44,15.9-6.88,4.26-4.52,6.4-10.48,6.02-16.79-.1-1.76-.09-3.56-.06-5.46,1.96.48,3.92.72,5.86.72,6.13,0,11.8-2.4,15.95-6.77,4.27-4.49,6.46-10.48,6.15-16.86-.61-12.58-.96-25.4-1.29-37.79-.38-14.11-.77-28.7-1.56-43.04-.32-5.81,2.52-9.26,5.8-13.24.8-.98,1.62-1.97,2.42-3.02,4.49,3.1,9.09,4.66,13.7,4.66,4.02,0,8.01-1.2,11.85-3.57,6.5-4.01,9.9-10.69,9.9-19.41,10.41-2.55,15.57-8.01,17.14-17.96.56-3.55,1.68-4.83,5.2-5.98,3.44-1.12,6.93-3.93,8.68-7.01,1.85-3.25,3.05-6.7,4.32-10.36.38-1.09.77-2.22,1.18-3.34,9.83-2.61,15.42-9.11,16.63-19.34.87-7.31-1.35-13.15-6.59-17.37-1.12-.9-2.65-2.13-2.72-2.96-.02-.3.1-1.21,1.79-3.09,8.51-9.48,15.85-19.88,22.95-29.93,1.94-2.74,2-8.25.12-10.91-1.65-2.34-4.04-3.88-6.36-5.38-1.01-.65-1.96-1.26-2.82-1.92-10.26-7.84-21.2-16.21-32.24-24.74-3.02-2.33-6.07-4.73-9.02-7.05-5.83-4.59-11.86-9.33-17.96-13.8-1.8-1.32-3.6-1.99-5.35-1.99h0Zm-9.94,33.47l3.14-4.12,8.19-10.75c.55.36,1.08.71,1.62,1.05,2.46,1.6,4.78,3.11,6.95,4.78,14.93,11.56,29.82,23.23,46.33,36.18,1.16.91,1.26,1.33,1.27,1.4.01.11-.08.43-.5.96l-2.24,2.81c-5.51,6.91-11.21,14.06-16.58,21.29-1.26,1.69-1.75,1.79-1.77,1.8-.06,0-.62-.05-2.45-1.71-4.32-3.92-10.23-9.3-18.28-9.3-1.19,0-2.42.12-3.64.35-11.98,2.28-17.97,9.21-19.22,22.37-14.73,4.5-17.44,14.42-17.71,22.41-9.52,1.91-15.54,8.33-17.47,18.7-.29,1.57-.49,3.88.22,5.96,1.09,3.21.23,4.93-3.71,7.34-3.99,2.44-6.91,7.16-8.01,12.94-1.12,5.87-.06,11.67,2.83,15.5,1.79,2.38,3.79,4.6,5.9,6.94.58.65,1.18,1.31,1.79,1.99-.24.32-.49.65-.75.98-1.71,2.25-3.66,4.79-5.69,7.23-4.35,5.23-4.11,11.31-3.91,16.68l.03.75.57,15.39c.65,17.46,1.32,35.5,1.94,53.26.12,3.39.05,6.88-.02,10.25l-.04,1.92c-.05,2.98-.92,7.97-6.09,7.97h-.07c-4.25-.04-7.13-1.46-7.35-8.26-.21-6.57-.52-13.24-.82-19.68l-.07-1.62c-.2-4.37-2.99-7.54-6.63-7.54-.7,0-1.41.12-2.12.35-3.13,1.02-6.4,5.42-6.35,8.56.25,15.58,1.04,31.21,1.8,46.32.18,3.65-.42,9.82-6.55,10.15-.1,0-.19,0-.29,0-3.38,0-6.7-3.02-6.84-6.22l-.2-4.55c-.55-12.79-1.13-26.02-1.34-39.01-.13-7.98-4.47-9.77-8.08-9.86-.09,0-.17,0-.26,0-2.54,0-4.09,1.05-4.95,1.93-1.56,1.62-2.27,4.07-2.16,7.52.31,9.63.65,19.43.97,28.9.21,5.99.41,11.98.62,17.97.04,1.11.08,2.23.13,3.34.13,3.24.27,6.58.18,9.83-.18,6.58-3.18,7.48-6.4,7.48h-.16c-5.47-.07-6.77-4.51-6.9-8.22-.26-7.57-.56-15.27-.86-22.71-.44-11.24-.9-22.86-1.22-34.28-.14-5.16-2.87-8.49-6.96-8.49-.56,0-1.14.07-1.72.2-3.33.75-6.51,5.88-6.44,9.15.25,12.43.79,25.05,1.32,37.25.24,5.46.48,11.11.69,16.66.12,3.06-.66,5.65-2.2,7.29-1.11,1.19-2.54,1.81-4.24,1.86-.07,0-.13,0-.19,0-3.65,0-6.76-2.79-6.93-6.21-.64-12.39-1.09-25.01-1.46-35.71-.27-7.95-.51-16.03-.74-23.85-.23-7.76-.46-15.78-.73-23.67-.22-6.41-.48-12.92-.73-19.21-.29-7.17-.58-14.58-.81-21.86-.27-8.46-5.72-9.37-8.05-9.37-1.22,0-2.59.22-4.05.65-2.26.67-5.07,1.5-7.56,1.5-.17,0-.35,0-.52-.01-2.56-.12-4.96-1.89-6.25-4.62-1.04-2.2-1.47-5.49.47-8.11,2.86-3.86,6.94-7.11,10.9-10.25l.11-.09c5.41-4.3,11-8.59,16.4-12.74,5.4-4.15,10.99-8.44,16.42-12.75,4.57-3.63,10-4.56,15.75-5.54,2.45-.42,4.99-.85,7.48-1.51,5.22-1.38,8.76-3.25,10.82-5.72,6.12-7.36,12.02-15.09,17.72-22.57,2.48-3.26,5.05-6.62,7.6-9.91,3.27-4.21,6.63-8.47,9.89-12.58,7.52-9.5,15.29-19.32,22.42-29.39,2.54-3.59,4.43-4.32,6.5-4.32,1.17,0,2.57.25,4.4.79,1.63.48,3.37.72,5.19.72,8.39,0,17.28-5.13,21.14-12.2,5.64-10.32,4.76-20.92-2.41-29.09h0Zm-57.36,48.69c.98-5.68,2-11.55,3.07-17.31,1.04-5.58,2.25-11.54,3.71-18.2,1.64-7.48,5.32-10.68,12.3-10.68.85,0,1.77.05,2.74.14,5.63.54,11.36,2.16,16.91,3.73l1.34.38c3.53.99,6.19,2.94,7.49,5.47,1.01,1.97,1.12,4.21.31,6.45-1.79,4.95-4.51,7.07-9.08,7.07-1.27,0-2.72-.17-4.31-.49-2.61-.54-4.6-1.07-6.2-1.49-2.1-.56-3.62-.96-5.03-.96-3.56,0-5.2,2.22-9.16,7.58-.69.93-1.47,1.99-2.36,3.17-3.71,4.94-7.6,9.88-11.36,14.67-.13.16-.25.32-.38.48h0Zm104.1,41.77c-1.3,0-2.56-.52-3.84-1.58-2.87-2.39-5.87-4.69-8.78-6.92-4.67-3.59-9.5-7.3-13.79-11.36-1.87-1.77-2.59-3.97-1.99-6.05.66-2.28,2.74-3.98,5.55-4.53.26-.05.56-.08.88-.08,1,0,1.82.26,2.15.49,6.47,4.65,12.84,9.42,18.45,13.64,1.62,1.22,3.17,2.38,4.64,3.48,2.13,2.6,3.22,5.62,2.93,8.12-.1.88-.43,2.09-1.43,2.83-1.73,1.29-3.34,1.94-4.79,1.94h0Zm-17.85,22.43c-1.64,0-3.25-.89-4.31-1.63-6.62-4.65-13.08-9.83-19.33-14.83l-2.48-1.99c-1.04-.83-1.78-2.48-1.98-4.42-.25-2.35.34-4.77,1.48-6.16.86-1.04,2.66-1.71,4.59-1.71,1.62,0,3.12.45,4.22,1.27,7.88,5.89,14.9,11.3,21.47,16.55,1.84,1.47,2.84,3.46,2.83,5.6-.01,2.16-1.09,4.23-2.95,5.69l-.09.07-.09.08c-1.05,1-2.15,1.48-3.35,1.48h0Zm-43.74,3.4c-2.35-2.76-3.92-6.92-.77-9.82,1.08-.99,2.75-2.18,4.63-2.18,1.21,0,2.46.5,3.7,1.48,2.54,2.02,5.13,4.03,7.64,5.98,5.04,3.91,10.25,7.95,15.15,12.15,3.16,2.71,2.52,6.5.47,9.06-.91,1.13-2.5,1.78-4.36,1.78-1.5,0-3.07-.44-4.41-1.24-.53-.32-1.07-.61-1.59-.9-.99-.54-1.92-1.04-2.66-1.65-4.59-3.71-9.1-7.46-13.46-11.08-1.47-1.22-2.92-2.42-4.33-3.59h0Zm-10.38,28.34c-3.61-4.14-4.56-8.32-2.42-10.69,1.3-1.43,3.05-2.22,4.95-2.22,1.52,0,3.05.51,4.43,1.48,5.08,3.55,10.17,7.39,15.57,11.73,1.15.92,1.88,2.42,2.07,4.21.24,2.36-.5,4.85-1.98,6.65-.79.96-2.25,1.53-3.92,1.53s-3.42-.58-4.73-1.6c-3.86-2.99-7.73-6.09-10.84-8.58-1.13-.91-2.18-1.75-3.12-2.49h0ZM63.83,327.6l68.24-88.04.17,4.53c.27,6.92.53,13.84.79,20.76.24,6.18.47,12.37.7,18.55.54,14.35,1.1,29.19,1.68,43.79.16,4.07.4,8.19.62,12.18.19,3.33.38,6.77.54,10.14,0,.18-.12.6-.28.81l-1.98,2.58c-4.36,5.69-8.87,11.57-13.55,17.13-.18.04-.49.09-.88.09-.5,0-.87-.08-1.01-.13-6.47-4.92-12.97-10.05-19.25-15.01-4.43-3.5-9.01-7.11-13.56-10.63-5.38-4.17-10.76-8.18-16.46-12.43-1.91-1.42-3.83-2.86-5.78-4.32h0Z"/>
      </g>
      <path class="cls-1" d="m50.99,134.59c1.39,15.68,15.06,30.06,31.79,30.04,6.5-.01,8.76,2.9,6.36,7.57-.65,1.26-2.53,2.61-3.91,2.68-17.53.87-31.74,15.96-31.59,32.68.03,3.68-.37,6.31-4.86,6.53-4.66.23-5.33-3.11-5.41-6.24-.2-7.4-3.56-13.36-8.01-18.77-6.36-7.73-14.98-11.04-24.78-11.57-3.23-.17-6.44-.57-6.28-4.72.15-3.99,3.32-5.23,6.69-5.53,17.32-1.53,29.54-16.02,29.87-31.97,2.16-12.52,10.19-6.99,10.14-.7Zm11.98,36.09c-5.43-5.02-11.1-10.26-16.47-15.22-4.89,5.39-10.03,11.06-14.84,16.37,5.14,4.75,10.71,9.9,16.27,15.03,4.83-5.2,9.95-10.71,15.04-16.18Z"/>
      <path class="cls-1" d="m31.4,63.18c-6.95-8.32-15.48-11.81-25.34-12.19-3.17-.12-5.84-.26-6.04-4.22-.21-4.22,2.64-5.63,6.09-5.98,6.16-.62,11.69-2.44,16.69-6.32,7.36-5.71,12.09-12.79,13.19-22.13.19-1.6,2.08-10.92,5.5-10.74,3.42.18,4.88,3.86,5.09,6.01,1.73,17.67,14.48,29.76,32.3,30.68,5.08-.03,6.24,2.56,6.59,4.44.69,3.76-2.11,5.38-6.33,5.83-17.59,1.87-29.69,15.43-29.86,32.4-.03,3-.34,6.52-4.69,6.44-3.75-.06-5.51-1.8-5.7-6.03-.32-7.08-2.89-13.53-7.49-18.2Zm11.99-2.95c5.07-5.44,10.3-11.05,15.06-16.16-5.28-4.88-10.92-10.09-16.32-15.08-4.84,5.2-9.88,10.62-15,16.13,5.39,5.01,10.93,10.15,16.26,15.1Z"/>
      <path class="cls-1" d="m120.06,64.75c1.85,2.02,2.36,9.39,3.64,13.75,3.77,12.9,16.56,21.08,29.42,21.56,4,.15,7.12,1.21,7.4,5.09.29,3.97-2.97,4.69-6.62,5.15-17.07,2.11-30.14,15.5-29.7,33.18.08,3.07-1.17,5.56-4.97,5.75-3.76.18-4.93-1.68-5.21-5.15-1.39-17.14-14.44-30.71-32.52-31.18-3.68-.1-6.37-.66-6.58-5-.21-4.38,3.32-5,6.1-5.25,11.14-.99,19.87-6.18,25.13-15.7,2.97-5.37,3.51-12.06,5.48-18.04.64-1.92,2.06-3.94,3.71-5.03.95-.63,2.86-1.13,4.71.89Zm-1.87,57.25c5.26-5.57,10.51-11.13,15.08-15.98-5.47-5.15-11.18-10.53-16.23-15.28-4.96,5.34-10.05,10.83-15.01,16.17,5.5,5.14,11.12,10.39,16.15,15.09Z"/>
    </g>
  </g>
</svg>