<?xml version="1.0" encoding="UTF-8"?>
<svg id="Camada_2" data-name="Camada 2" xmlns="http://www.w3.org/2000/svg" viewBox="0 0 325.45 387.11">
  <defs>
    <style>
      .cls-1 {
        fill: none;
        stroke: #801d45;
        stroke-linecap: round;
        stroke-linejoin: round;
        stroke-width: 15px;
      }
    </style>
  </defs>
  <g id="FORMADOS">
    <g>
      <path class="cls-1" d="m317.9,182.55c-2.51,71.5-60.19,161.39-147.55,195.62-4.39,1.75-10.77,2.02-14.99.15C76.98,343.69,7.66,252.55,7.66,182.8c-.14-32.99.08-65.99-.16-98.98-.06-8.96,3.78-14.52,11.76-17.92C63.36,47.12,107.45,28.31,151.51,9.42c5.94-2.55,11.51-2.54,17.49-.06,45.44,18.81,90.92,37.52,136.43,56.19,8.47,3.47,12.74,9.14,12.53,18.69-.39,17.53-.47,86.85-.04,98.32Z"/>
      <path class="cls-1" d="m109.29,184.22c10.1,9.37,19.89,19.07,29.81,28.63,1.62,1.56,3.35,3,5.37,4.81,8.83-8.34,17.32-16.33,25.77-24.36,12.56-11.93,25.1-23.89,37.65-35.84"/>
    </g>
  </g>
</svg>