<?xml version="1.0" encoding="UTF-8"?>
<svg id="Camada_2" data-name="Camada 2" xmlns="http://www.w3.org/2000/svg" viewBox="0 0 455.28 455.28">
  <defs>
    <style>
      .cls-1 {
        fill: none;
        stroke: #edf2f4;
        stroke-linejoin: round;
        stroke-width: 3px;
      }
    </style>
  </defs>
  <g id="contorno_logo" data-name="contorno logo">
    <path class="cls-1" d="m158.13,361.53h-54.12L19.85,138.28C8.05,165.69,1.5,195.9,1.5,227.64c0,124.89,101.25,226.14,226.14,226.14s226.14-101.25,226.14-226.14S352.53,1.5,227.64,1.5C155.82,1.5,91.82,34.99,50.4,87.2l80.68,226.36,84.87-236.98h49.2l-92.72,246.89c-.06.06,135.62-.12,135.62-.12,15.85,0,28.29-3.82,37.31-11.48,9.02-7.65,13.53-18.31,13.53-31.98s-4.79-25.01-14.35-33.21c-9.57-8.2-22.28-12.3-38.13-12.3h-61.5s-19.01,0-19.01,0l14.32-38.13h4.7,0s57.81,0,57.81,0c15.3,0,27.27-3.48,35.88-10.46,8.61-6.97,12.92-17.02,12.92-30.13s-4.3-22.89-12.92-30.14c-8.61-7.24-20.57-10.86-35.88-10.86h-27.81s-4.06,0-4.06,0l14.3-38.08,21.67-.05c19.4,0,36.08,3.28,50.02,9.84,13.94,6.56,24.46,15.38,31.57,26.44,7.1,11.07,10.66,23.44,10.66,37.1,0,16.4-4.38,30.07-13.12,41-8.75,10.94-20.5,19-35.26,24.19,15.3,2.74,28.29,10.8,38.95,24.19,10.66,13.4,15.99,28.57,15.99,45.51,0,14.49-3.76,27.54-11.28,39.16-7.52,11.62-18.39,20.78-32.59,27.47-14.21,6.7-30.75,10.04-49.61,10.04h-146.76l-7.26.05Z"/>
  </g>
</svg>